<svg id="Layer_1" xmlns="http://www.w3.org/2000/svg" viewBox="0 0 256 256"><style>.st0{fill:#fff}.st1{fill:#ff1f00}</style><title>Snkrs</title><g id="Page-1"><g id="Snkrs"><g id="snkrs-logo-mobile"><path id="Rectangle" class="st0" d="M24 0h208c13.3 0 24 10.7 24 24v208c0 13.3-10.7 24-24 24H24c-13.3 0-24-10.7-24-24V24C0 10.7 10.7 0 24 0z"/><path id="Combined-Shape" class="st1" d="M171.1 162.3c4.7 0 7.2-4.1 7.2-8.3 0-5.7-3.5-8.1-8.3-7.9v16.1l1.1.1zm-108.8 19c-1.9 9.7-9.7 16.5-20.3 16.5-4.5 0-9.1-.4-13.3-2.1v-20.4c2.4 3.6 6.7 7.2 11.2 7.2 2.4 0 5.2-1.5 5.2-4.3 0-1.5-.5-2.7-1.4-3.6-.8-1-1.8-1.8-2.9-2.5-3.5-2.7-6.5-5.2-8.8-8.3-2.1-3-3.5-6.6-3.5-11.4 0-7.6 4.8-20.8 19.9-20.8 3.9 0 8 1.1 11.6 2.8v18.3c-2.3-2.9-5.9-5.6-9.4-5.6-2 0-4.6 1.4-4.6 4 0 1.4.8 2.6 1.7 3.6.9 1 2.3 1.9 3.2 2.7 3.7 2.6 6.7 5 8.7 8 1.3 1.8 2.2 3.7 2.7 6.1v-39.3h18.5l8.4 29.2v-29.2h17v65.1H91.7l-12.3-31.9v31.9H62.3v-16zm90.1-49.2h17.1c12.5 0 22.2 3 25.4 13.5 2.1-6.8 7.7-14.1 18.9-14.1 4.2 0 8.8.7 12.6 2.7V154c-2.1-3.3-6.3-7-10.4-7-2.1 0-4.6 1.5-4.6 4 0 1.4.8 2.6 1.7 3.6.9 1 2.3 1.9 3.2 2.7 3.7 2.6 6.7 5 8.7 8 2.1 2.9 3.2 6.4 3.2 11.3 0 12.1-8.5 21.2-20.8 21.2-2.8 0-5.7-.1-8.4-.7l.1.2h-19.2l-10-26.9c.1 3.2.3 6.4.3 9.6v17.3h-33.1l-10.7-27.9v27.9h-17.6v-65.1h17.6V151l8.9-18.9h17.1zm0 3.3l-12.2 25.2 12.2 29.2v-54.4zm42.7 24.4c-1.3 4.6-4.4 8.4-9.3 10.4L194 187v-11.7c2.4 3.6 6.7 7.2 11.2 7.2 2.4 0 5.2-1.5 5.2-4.3 0-1.5-.5-2.7-1.4-3.6-.8-.9-1.8-1.7-2.9-2.5-3.5-2.7-6.5-5.2-8.8-8.3-.9-1.3-1.7-2.6-2.2-4z"/><path id="Shape" class="st1" d="M101.1 84.4c-8.2 2.1-14.7 1.9-18.5-.8-9.6-7-2.3-21.1.3-25.3-4.7 5.1-9.4 10.3-13 15.9-5.7 8.8-8.2 18.4-4.3 24.5 6.9 11.1 23.6 6 34.3 1.5l98.7-41.5-97.5 25.7z"/></g></g></g></svg>